# xmcd CD database file
# Copyright (C) 1993-1996 Ti Kan
#
# Track frame offsets:
# 150
# 9455
# 21147
# 31540
# 42622
# 51992
# 61545
# 70305
# 82025
# 92940
# 102622
# 114357
# 124495
# 132167
# 142847
# 154615
# 167035
# 182192
# 193170
# 206965
# 218135
# 235812
# 244147
# 254902
# 263537
# 277367
# 285800
# 298170
#
# Disc length: 4151 seconds
#
# Revision: 0
# Processed by: cddbd v1.4b41PL1 Copyright (c) Steve Scherf et al.
# Submitted via: inCDius 1.1b5
#
DISCID=ac10351c
DTITLE=Johnny Duuncan - Last Train To San Fernando -Disc 3
DYEAR=1900
DGENRE=
TTITLE0=Sleepy - Eyed John
TTITLE1=Tobacco Road
TTITLE2=The Legend Of Gunga Din
TTITLE3=Hannah
TTITLE4=Waitin For The Sandman
TTITLE5=A Long Time Gone
TTITLE6=Will You Be Mine
TTITLE7=She's My Baby
TTITLE8=You Shouldn't Have Cried
TTITLE9=Baby We're Really In Love
TTITLE10=Bluebird Island
TTITLE11=The Ballad Of Jed Clampett
TTITLE12=Dang Me
TTITLE13=Which Way Did He Go
TTITLE14=My Little Baby
TTITLE15=I Thank My Lucky Stars
TTITLE16=Beyond The Sunset
TTITLE17=Just A Little Talk With Jesus 
TTITLE18=Amazing Grace
TTITLE19=Where Could I Go But To The Lord
TTITLE20=Just A Closer Walk With Thee
TTITLE21=Walking In Jerusalem Just Like John
TTITLE22=Precious Lord Hold My Hand
TTITLE23=No Hiding Place Down There
TTITLE24=I've Just Told Mama Goodbye
TTITLE25=Press On
TTITLE26=In The Garden
TTITLE27=When God Dips His Pen Of Love In My Heart
EXTD=
EXTT0=
EXTT1=
EXTT2=
EXTT3=
EXTT4=
EXTT5=
EXTT6=
EXTT7=
EXTT8=
EXTT9=
EXTT10=
EXTT11=
EXTT12=
EXTT13=
EXTT14=
EXTT15=
EXTT16=
EXTT17=
EXTT18=
EXTT19=
EXTT20=
EXTT21=
EXTT22=
EXTT23=
EXTT24=
EXTT25=
EXTT26=
EXTT27=
PLAYORDER=
